# xmcd
#
# Track frame offsets:
#	150
#	19127
#	39340
#	55467
#	79657
#	99867
#	114820
#	133945
#	144865
#	158322
#	177900
#	197290
#	212490
#	227137
#
# Disc length: 3280 seconds
#
# Revision: 6
# Processed by: cddbd v1.5.2PL0 Copyright (c) Steve Scherf et al.
# Submitted via: EasyCDDAExtractor 16.1.0.1
#
DISCID=a30cce0e
DTITLE=Various Artist - Amigos para Sempre
DYEAR=2001
DGENRE=Sertanejo
TTITLE0=Leandro and Leonardo - Eu Juro
TTITLE1=Zezé di Camargo and Luciano - Cada volta é um recomeço
TTITLE2=Chitãozinho e Xororó - Página de amigos
TTITLE3=João Paulo and Daniel - Te amo cada vez mais
TTITLE4=Cleiton and Camargo - Quando um grande amor se faz
TTITLE5=Chrystian and Ralf - Sensível demais
TTITLE6=Gian and Giovani - Quem será
TTITLE7=Cézar and Paulinho - Pé de Bode
TTITLE8=Gilberto and Gilmar - Nóis não vive sem muié
TTITLE9=Rick and Renner - Diga que ainda me ama
TTITLE10=Rio Negro and Solimões - Frio da madrugada
TTITLE11=Roberta Miranda - Seu amor ainda é tudo
TTITLE12=Marcelo Costa - Cai nos meus braços
TTITLE13=Jayne - Amigos para sempre
EXTD=YEAR: 2001 ID3G:   2\n
EXTT0=
EXTT1=
EXTT2=
EXTT3=
EXTT4=
EXTT5=
EXTT6=
EXTT7=
EXTT8=
EXTT9=
EXTT10=
EXTT11=
EXTT12=
EXTT13=
PLAYORDER=
